<svg xmlns="http://www.w3.org/2000/svg" version="1.1" xmlns:xlink="http://www.w3.org/1999/xlink" xmlns:svgjs="http://svgjs.dev/svgjs" width="1000" height="1000" viewBox="0 0 1000 1000"><rect width="1000" height="1000" fill="#8d021f"></rect><g transform="matrix(0.7,0,0,0.7,150.4500433558593,267.4384615384615)"><svg viewBox="0 0 371 247" data-background-color="#8d021f" preserveAspectRatio="xMidYMid meet" height="665" width="1000" xmlns="http://www.w3.org/2000/svg" xmlns:xlink="http://www.w3.org/1999/xlink"><g id="tight-bounds" transform="matrix(1,0,0,1,-0.23852250710882572,-0.09999999999999432)"><svg viewBox="0 0 371.47704548571426 247.2" height="247.2" width="371.47704548571426"><g><svg viewBox="0 0 371.47704548571426 247.2" height="247.2" width="371.47704548571426"><g><svg viewBox="0 0 193.52228571428572 247.2" height="247.2" width="193.52228571428572"><g><svg viewBox="0 0 193.52228571428572 247.2" height="247.2" width="193.52228571428572"><g><svg viewBox="0 0 193.52228571428572 247.2" height="247.2" width="193.52228571428572"><g transform="matrix(1,0,0,1,0,0)"><svg width="193.52228571428572" viewBox="3.930000066757202 -35 27.399999618530273 35" height="247.2" data-palette-color="#ffffff"><path d="M9.38 0L3.93 0 3.93-35 9.58-35 25.85-10.33 25.85-35 31.33-35 31.33 0 26.78 0 9.38-26.1 9.38 0Z" opacity="1" transform="matrix(1,0,0,1,0,0)" fill="#ffffff" class="undefined-text-0" data-fill-palette-color="primary" id="text-0"></path></svg></g></svg></g></svg></g></svg></g><g transform="matrix(1,0,0,1,251.8802729142857,78.40354524916944)"><svg viewBox="0 0 119.59677257142856 90.39290950166112" height="90.39290950166112" width="119.59677257142856"><g><svg xmlns="http://www.w3.org/2000/svg" xmlns:xlink="http://www.w3.org/1999/xlink" version="1.1" x="0" y="0" viewBox="6.5 18 86 65" enable-background="new 0 0 100 100" xml:space="preserve" height="90.39290950166112" width="119.59677257142856" class="icon-icon-0" data-fill-palette-color="accent" id="icon-0"><g fill="#ffffff" data-fill-palette-color="accent"><path d="M35.845 61.275l-10.72-5.09c-1.209-0.572-1.94-1.463-1.94-2.703v-0.318c0-1.24 0.731-2.131 1.94-2.704l10.72-5.089c0.381-0.191 0.731-0.318 1.177-0.318 1.018-0.031 1.94 0.859 1.94 2.004 0 0.922-0.509 1.559-1.336 1.94l-9.606 4.294 9.606 4.295c0.827 0.381 1.336 1.113 1.336 2.004 0 1.177-0.922 2.004-2.1 1.972C36.513 61.562 36.163 61.435 35.845 61.275z" fill="#ffffff" data-fill-palette-color="accent"></path><path d="M41.889 66.047l12.438-25.988c0.35-0.731 0.922-1.113 1.686-1.113 1.018 0 1.876 0.859 1.876 1.813 0 0.35-0.127 0.7-0.222 0.923L45.229 67.669c-0.35 0.731-0.922 1.113-1.686 1.113-1.018 0-1.876-0.858-1.876-1.813C41.667 66.619 41.793 66.27 41.889 66.047z" fill="#ffffff" data-fill-palette-color="accent"></path><path d="M64.155 45.371l10.72 5.089c1.208 0.573 1.94 1.464 1.94 2.704v0.318c0 1.24-0.731 2.131-1.94 2.703l-10.72 5.09c-0.381 0.191-0.731 0.318-1.177 0.318-1.018 0.031-1.94-0.859-1.94-2.004 0-0.923 0.509-1.559 1.336-1.94l9.606-4.295-9.606-4.294c-0.827-0.381-1.336-1.113-1.336-2.004 0-1.177 0.923-2.004 2.1-1.973C63.487 45.084 63.837 45.212 64.155 45.371z" fill="#ffffff" data-fill-palette-color="accent"></path></g><path d="M92.5 21c0-1.657-1.343-3-3-3h-80c-1.657 0-3 1.343-3 3v59c0 1.657 1.343 3 3 3h80c1.657 0 3-1.343 3-3V21zM26 20.833c1.196 0 2.167 0.97 2.167 2.167s-0.97 2.167-2.167 2.167-2.167-0.97-2.167-2.167S24.804 20.833 26 20.833zM20 20.833c1.196 0 2.167 0.97 2.167 2.167s-0.97 2.167-2.167 2.167-2.167-0.97-2.167-2.167S18.804 20.833 20 20.833zM14 20.833c1.196 0 2.167 0.97 2.167 2.167s-0.97 2.167-2.167 2.167-2.167-0.97-2.167-2.167S12.804 20.833 14 20.833zM88.5 79h-78V29h78V79z" fill="#ffffff" data-fill-palette-color="accent"></path></svg></g></svg></g></svg></g><defs></defs></svg><rect width="371.47704548571426" height="247.2" fill="none" stroke="none" visibility="hidden"></rect></g></svg></g></svg>